# AST/ASF file generated using VICON BodyLanguage
# -----------------------------------------------
:version 1.10
:name VICON
:units
  mass 1.0
  length 0.45
  angle deg
:documentation
   .ast/.asf automatically generated from VICON data using
   VICON BodyBuilder and BodyLanguage model FoxedUp or BRILLIANT.MOD
:root
   order TX TY TZ RX RY RZ
   axis XYZ
   position 0 0 0  
   orientation 0 0 0 
:bonedata
  begin
     id 1 
     name lhipjoint
     direction 0.558404 -0.748506 0.357664 
     length 2.4234 
     axis 0 0 0  XYZ
  end
  begin
     id 2 
     name lfemur
     direction 0.34202 -0.939693 0  
     length 7.14567  
     axis 0 0 20  XYZ
    dof rx ry rz
    limits (-160.0 20.0)
           (-70.0 70.0)
           (-60.0 70.0)
  end
  begin
     id 3 
     name ltibia
     direction 0.34202 -0.939693 0   
     length 8.13956   
     axis 0 0 20   XYZ
    dof rx
    limits (-10.0 170.0)
  end
  begin
     id 4 
     name lfoot
     direction 0.0791314 -0.217412 0.972867   
     length 2.00134   
     axis -90 7.62852e-016 20   XYZ
    dof rx rz
    limits (-45.0 90.0)
           (-70.0 20.0)
  end
  begin
     id 5 
     name ltoes
     direction 1.53547e-011 -4.21922e-011 1   
     length 1.00735   
     axis -90 7.62852e-016 20   XYZ
    dof rx
    limits (-90.0 20.0)
  end
  begin
     id 6 
     name rhipjoint
     direction -0.496392 -0.78327 0.374276   
     length 2.31584  
     axis 0 0 0  XYZ 
  end
  begin
     id 7 
     name rfemur
     direction -0.34202 -0.939693 0   
     length 7.47417   
     axis 0 0 -20   XYZ
    dof rx ry rz
    limits (-160.0 20.0)
           (-70.0 70.0)
           (-70.0 60.0)
  end
  begin
     id 8 
     name rtibia
     direction -0.34202 -0.939693 0   
     length 7.69071   
     axis 0 0 -20   XYZ
    dof rx
    limits (-10.0 170.0)
 end
 begin
     id 9 
     name rfoot
     direction -0.103069 -0.28318 0.953512   
     length 2.16135  
     axis -90 -7.62852e-016 -20   XYZ
    dof rx rz
    limits (-45.0 90.0)
           (-20.0 70.0)
  end
  begin
     id 10 
     name rtoes
     direction -1.53581e-011 -4.21904e-011 1   
     length 1.07867   
     axis -90 -7.62852e-016 -20   XYZ
    dof rx
    limits (-90.0 20.0)
  end
  begin
     id 11 
     name lowerback
     direction -0.0258961 0.994776 -0.0987407   
     length 2.19412   
     axis 0 0 0   XYZ
    dof rx ry rz
    limits (-20.0 45.0)
           (-30.0 30.0)
           (-30.0 30.0)
  end
  begin
     id 12 
     name upperback
     direction 0.0402454 0.999185 0.00320666   
     length 2.18445   
     axis 0 0 0   XYZ
    dof rx ry rz
    limits (-20.0 45.0)
           (-30.0 30.0)
           (-30.0 30.0)
  end
  begin
     id 13 
     name thorax
     direction 0.0519376 0.997415 0.0496558   
     length 2.21487   
     axis 0 0 0   XYZ
    dof rx ry rz
    limits (-20.0 45.0)
           (-30.0 30.0)
           (-30.0 30.0)
  end
  begin
     id 14 
     name lowerneck
     direction -0.0921276 0.983211 0.157506   
     length 1.61201   
     axis 0 0 0   XYZ
    dof rx ry rz
    limits (-20.0 45.0)
           (-30.0 30.0)
           (-30.0 30.0)
  end
  begin
     id 15 
     name upperneck
     direction 0.0820814 0.98162 -0.172292   
     length 1.65275   
     axis 0 0 0   XYZ
    dof rx ry rz
    limits (-20.0 45.0)
           (-30.0 30.0)
           (-30.0 30.0)
  end
  begin
     id 16
     name head
     direction 0.0336554 0.996413 -0.0776455  
     length 1.66415  
     axis 0 0 0   XYZ
    dof rx ry rz
    limits (-20.0 45.0)
           (-30.0 30.0)
           (-30.0 30.0)
  end
  begin
     id 17 
     name lclavicle
     direction 0.94696 0.284418 -0.149576  
     length 3.41447  
     axis 0 0 0   XYZ
    dof ry rz
    limits (-20.0 10.0)
           (0.0 20.0)
  end
  begin
     id 18 
     name lhumerus
     direction 1 -0.000130264 -9.81312e-005   
     length 5.19964   
     axis 180 -30 -90   XYZ
    dof rx ry rz
    limits (-60.0 90.0)
           (-90.0 90.0)
           (-90.0 90.0)
  end
  begin
     id 19
     name lradius
     direction 1 -4.48961e-011 1.43854e-026   
     length 3.32189   
     axis 180 -30 -90   XYZ
    dof rx
    limits (-10.0 170.0)
  end
  begin
     id 20
     name lwrist
     direction 1 -4.48958e-011 3.1502e-026   
     length 1.66095   
     axis -1.97692e-014 90 90   XYZ
    dof ry
    limits (-180.0 0.0)
 end
  begin
     id 21 
     name lhand
     direction 1 -4.48927e-011 6.3004e-026   
     length 0.645616   
     axis -4.02019e-014 90 90   XYZ
    dof rx rz
    limits (-90.0 90.0)
           (-45.0 45.0)
  end
  begin
     id 22 
     name lfingers
     direction 1 -4.4904e-011 1.26008e-025   
     length 0.520512   
     axis -8.04039e-014 90 90   XYZ
    dof rx
    limits (0.0 90.0)
  end
  begin
     id 23
     name lthumb
     direction 0.707107 -6.34947e-011 0.707107   
     length 0.747354   
     axis -90 45 2.85299e-015   XYZ
    dof rx rz
    limits (-45.0 45.0)
           (-45.0 45.0)
  end
  begin
     id 24 
     name rclavicle
     direction -0.909391 0.383475 -0.161107   
     length 3.25176  
     axis 0 0 0   XYZ 
    dof ry rz
    limits (-10.0 20.0)
           (-20.0 0.0)
  end
  begin
     id 25 
     name rhumerus
     direction -1 -4.48965e-011 -1.81384e-027  
     length 5.6595   
     axis 180 30 90   XYZ
    dof rx ry rz
    limits (-90.0 60.0)
           (-90.0 90.0)
           (-90.0 90.0)
  end
  begin
     id 26 
     name rradius
     direction -1 -4.48996e-011 -8.09397e-027   
     length 3.37604   
     axis 180 30 90   XYZ
    dof rx
    limits (-10.0 170.0)
  end
  begin
     id 27 
     name rwrist
     direction -1 -4.48927e-011 -1.56669e-026   
     length 1.68802   
     axis 1.21142e-014 -90 -90   XYZ
    dof ry
    limits (-180.0 0.0)
  end
  begin
     id 28
     name rhand
     direction -1 -4.48912e-011 -3.13339e-026   
     length 0.824702   
     axis 1.99937e-014 -90 -90   XYZ
    dof rx rz
    limits (-90.0 90.0)
           (-45.0 45.0)
  end
  begin
     id 29
     name rfingers
     direction -1 -4.49011e-011 -6.26677e-026   
     length 0.664896   
     axis 3.99874e-014 -90 -90   XYZ
    dof rx
    limits (0.0 90.0)
  end
  begin
     id 30
     name rthumb
     direction -0.707107 -6.34931e-011 0.707107   
     length 0.954662   
     axis -90 -45 -2.85299e-015   XYZ
    dof rx rz
    limits (-45.0 45.0)
           (-45.0 45.0)
  end
:hierarchy
  begin
    root lhipjoint rhipjoint lowerback
    lhipjoint lfemur
    lfemur ltibia
    ltibia lfoot
    lfoot ltoes
    rhipjoint rfemur
    rfemur rtibia
    rtibia rfoot
    rfoot rtoes
    lowerback upperback
    upperback thorax
    thorax lowerneck lclavicle rclavicle
    lowerneck upperneck
    upperneck head
    lclavicle lhumerus
    lhumerus lradius
    lradius lwrist
    lwrist lhand lthumb
    lhand lfingers
    rclavicle rhumerus
    rhumerus rradius
    rradius rwrist
    rwrist rhand rthumb
    rhand rfingers
  end

#!OML:ASF F:\VICON\USERDATA\INSTALL\rory3\rory3.ASF
:FULLY-SPECIFIED
:DEGREES
322
root 7.45246 17.2527 -27.2243 24.2679 -46.4025 -4.95349
lowerback 12.345 -3.29809 -9.04352
upperback 1.82523 -5.41736 3.52291
thorax -3.77656 -2.58356 9.689
lowerneck -14.6721 4.19683 -7.54335
upperneck 18.6765 5.69707 8.403
head 7.6722 2.97297 4.63347
rclavicle 6.12257e-014 -9.54166e-015
rhumerus -35.1109 -9.60976 -73.2017
rradius 49.0108
rwrist -16.1546
rhand -12.5755 18.815
rfingers 7.12502
rthumb 13.5023 -10.7273
lclavicle 6.12257e-014 -9.54166e-015
lhumerus -6.53474 21.2009 71.5589
lradius 28.0755
lwrist -9.05756
lhand -7.13532 31.7908
lfingers 7.12502
lthumb 18.7407 60.908
rfemur -58.4425 -2.88255 21.2921
rtibia 68.5406
rfoot -16.4898 0.97311
rtoes 2.02773
lfemur -18.2779 -4.67637 -32.5443
ltibia 39.2112
lfoot -18.4054 -4.80215
ltoes 41.47
323
root 7.38228 17.1967 -27.0241 24.313 -46.0808 -4.8802
lowerback 12.3613 -3.38111 -9.21945
upperback 1.92057 -5.54404 3.68705
thorax -3.61965 -2.66047 9.98084
lowerneck -14.806 4.13832 -7.68634
upperneck 18.565 5.6752 8.36203
head 7.65869 2.95339 4.6419
rclavicle -2.78299e-015 -4.77083e-014
rhumerus -35.3035 -9.29679 -72.9378
rradius 49.7146
rwrist -16.2156
rhand -13.1083 18.3965
rfingers 7.12502
rthumb 12.9888 -11.1792
lclavicle -2.78299e-015 -4.77083e-014
lhumerus -5.82082 20.5628 71.3294
lradius 27.5892
lwrist -9.3233
lhand -6.85943 31.9329
lfingers 7.12502
lthumb 19.006 61.0244
rfemur -59.5046 -3.21153 22.1986
rtibia 67.9558
rfoot -16.9437 2.23597
rtoes 1.91721
lfemur -17.4846 -4.47928 -32.9111
ltibia 38.8809
lfoot -17.7791 -5.0921
ltoes 33.7856
324
root 7.31419 17.1579 -26.8237 24.4705 -45.6784 -4.79666
lowerback 12.4972 -3.53484 -9.4182
upperback 1.84388 -5.77948 3.88398
thorax -3.67901 -2.76896 10.3582
lowerneck -14.5465 4.19669 -7.7238
upperneck 18.1384 5.7935 8.20986
head 7.46697 2.99748 4.58013
rclavicle 8.15017e-014 -8.11041e-014
rhumerus -35.6402 -8.80002 -72.731
rradius 50.5137
rwrist -16.4384
rhand -13.3113 18.2755
rfingers 7.12502
rthumb 12.7931 -11.3125
lclavicle 8.15017e-014 -8.11041e-014
lhumerus -5.43068 20.4479 71.0053
lradius 27.4381
lwrist -9.60575
lhand -6.81084 32.1871
lfingers 7.12502
lthumb 19.0527 61.2739
rfemur -60.561 -3.55588 23.1172
rtibia 67.2794
rfoot -17.1737 3.26489
rtoes 2.92281
lfemur -16.7135 -4.06832 -33.2096
ltibia 38.3362
lfoot -17.849 -5.13815
ltoes 30.1348
325
root 7.24363 17.1216 -26.6201 24.8997 -45.281 -5.08843
lowerback 12.5494 -3.64631 -9.30561
upperback 1.82296 -5.91071 4.04247
thorax -3.69217 -2.83468 10.4897
lowerneck -14.1272 4.23838 -7.86899
upperneck 17.4715 5.84863 8.36923
head 7.16025 3.03697 4.61799
rclavicle 5.40694e-014 3.4191e-014
rhumerus -35.9857 -8.58325 -72.5986
rradius 51.309
rwrist -16.5787
rhand -13.2979 18.3586
rfingers 7.12502
rthumb 12.806 -11.2286
lclavicle 5.40694e-014 3.4191e-014
lhumerus -4.96925 20.8249 70.6922
lradius 27.4457
lwrist -10.3234
lhand -7.06461 31.8964
lfingers 7.12502
lthumb 18.8087 61.0071
rfemur -61.5216 -3.73045 24.3051
rtibia 66.6453
rfoot -17.422 4.011
rtoes 2.81499
lfemur -15.97 -3.75836 -33.2419
ltibia 37.8699
lfoot -17.7493 -5.17854
ltoes 30.1519
326
root 7.17268 17.0819 -26.4153 25.3637 -44.722 -5.33051
lowerback 12.7132 -3.8888 -9.32038
upperback 1.67557 -6.23816 4.36472
thorax -3.82055 -2.9838 10.9205
lowerneck -13.5671 4.37447 -8.42924
upperneck 16.7155 6.07161 8.77017
head 6.76372 3.15188 4.80566
rclavicle -7.95139e-015 2.3059e-014
rhumerus -36.2925 -8.05203 -72.332
rradius 51.9977
rwrist -16.4401
rhand -13.2884 18.5554
rfingers 7.12502
rthumb 12.8152 -11.0313
lclavicle -7.95139e-015 2.3059e-014
lhumerus -5.18288 22.2757 70.6385
lradius 27.7909
lwrist -11.5677
lhand -6.70736 31.8731
lfingers 7.12502
lthumb 19.1522 60.9501
rfemur -62.5119 -3.90695 25.44
rtibia 66.0949
rfoot -17.5197 4.65906
rtoes 1.23635
lfemur -15.2995 -3.45862 -33.1969
ltibia 37.4151
lfoot -17.4472 -5.61191
ltoes 33.4667
327
root 7.10177 17.039 -26.2044 25.6026 -44.0307 -5.32706
lowerback 12.5444 -4.09343 -9.0361
upperback 1.81822 -6.4529 4.41556
thorax -3.54649 -3.12085 10.8035
lowerneck -15.5782 4.27656 -7.24409
upperneck 18.4856 5.90321 7.95913
head 7.78059 3.06562 4.48253
rclavicle 9.14409e-014 -1.74931e-014
rhumerus -36.3366 -8.42804 -72.2716
rradius 52.6211
rwrist -16.1332
rhand -13.5143 18.6036
rfingers 7.12502
rthumb 12.5974 -10.9966
lclavicle 9.14409e-014 -1.74931e-014
lhumerus -4.19255 21.5792 69.9934
lradius 27.608
lwrist -10.7938
lhand -5.82486 32.3194
lfingers 7.12502
lthumb 20.0007 61.31
rfemur -63.3939 -4.21373 26.3253
rtibia 65.7129
rfoot -17.2539 5.87254
rtoes -0.0315667
lfemur -14.568 -3.34445 -33.2529
ltibia 37.0343
lfoot -16.8999 -6.16515
ltoes 36.2847
328
root 7.02702 16.9936 -25.9882 25.8026 -43.4578 -5.42317
lowerback 12.5226 -4.23397 -8.75362
upperback 1.92234 -6.59729 4.42601
thorax -3.4189 -3.20941 10.6554
lowerneck -15.8094 4.26568 -6.97082
upperneck 18.3604 5.84376 7.95125
head 7.79506 3.06132 4.43393
rclavicle -1.19271e-014 7.95139e-016
rhumerus -36.5253 -8.54703 -72.3496
rradius 53.3754
rwrist -16.2169
rhand -14.2591 18.1896
rfingers 7.12502
rthumb 11.8792 -11.4534
lclavicle -1.19271e-014 7.95139e-016
lhumerus -3.92957 22.1073 69.7709
lradius 28.0444
lwrist -11.4635
lhand -6.07575 31.9088
lfingers 7.12502
lthumb 19.7595 60.9244
rfemur -63.9847 -4.27976 27.0106
rtibia 65.4668
rfoot -16.5835 7.82531
rtoes 6.40338
lfemur -13.7352 -3.28267 -33.291
ltibia 36.7289
lfoot -16.2461 -6.43184
ltoes 37.6676
329
root 6.95117 16.9422 -25.7722 26.0253 -42.9049 -5.51948
lowerback 12.4951 -4.35611 -8.51034
upperback 1.94606 -6.72216 4.47546
thorax -3.37074 -3.27864 10.5768
lowerneck -15.7008 4.23529 -6.72145
upperneck 18.0535 5.75795 7.88899
head 7.69249 3.03555 4.34821
rclavicle 3.77691e-014 -1.82882e-014
rhumerus -36.8134 -8.49834 -72.3938
rradius 54.1135
rwrist -16.4527
rhand -14.8472 18.0305
rfingers 7.12502
rthumb 11.3121 -11.6445
lclavicle 3.77691e-014 -1.82882e-014
lhumerus -3.6616 22.0867 69.2505
lradius 28.2986
lwrist -11.6919
lhand -6.40202 31.6413
lfingers 7.12502
lthumb 19.4459 60.689
rfemur -64.5614 -4.2674 27.6755
rtibia 65.3939
rfoot -15.9616 9.19777
rtoes 9.40046
lfemur -12.9722 -3.21091 -33.2842
ltibia 36.4414
lfoot -15.45 -6.8696
ltoes 39.5212
330
root 6.87259 16.8976 -25.5458 26.2235 -42.3735 -5.66151
lowerback 12.7784 -4.54907 -8.45271
upperback 1.72946 -6.98447 4.69683
thorax -3.67317 -3.38166 10.8677
lowerneck -14.7015 4.29212 -7.05075
upperneck 17.2302 5.84294 8.08227
head 7.22168 3.07337 4.4025
rclavicle 1.32391e-013 3.97569e-015
rhumerus -37.2462 -7.89986 -72.2325
rradius 54.6943
rwrist -16.5483
rhand -15.1384 18.1623
rfingers 7.12502
rthumb 11.0312 -11.5278
lclavicle 1.32391e-013 3.97569e-015
lhumerus -3.9189 21.539 68.3283
lradius 28.2929
lwrist -11.1756
lhand -6.02373 31.7433
lfingers 7.12502
lthumb 19.8095 60.7538
rfemur -65.1132 -4.48018 28.6944
rtibia 65.4243
rfoot -15.8515 8.56851
rtoes 4.61134
lfemur -12.1749 -3.12885 -33.2428
ltibia 36.1513
lfoot -14.2685 -7.4529
ltoes 41.6523
331
root 6.78661 16.8381 -25.2989 26.1786 -42.1116 -5.77312
lowerback 12.7362 -4.60628 -8.22778
upperback 1.80744 -7.02539 4.71353
thorax -3.58207 -3.41459 10.7488
lowerneck -14.3607 4.24311 -7.30319
upperneck 16.8735 5.78477 8.29657
head 7.03516 3.05072 4.48228
rclavicle 2.82274e-014 3.33958e-014
rhumerus -37.503 -7.72162 -72.1077
rradius 55.2926
rwrist -16.7801
rhand -15.484 18.1283
rfingers 7.12502
rthumb 10.6979 -11.5794
lclavicle 2.82274e-014 3.33958e-014
lhumerus -3.88928 20.0774 67.4914
lradius 28.2878
lwrist -9.52117
lhand -6.09979 31.9352
lfingers 7.12502
lthumb 19.7364 60.9532
rfemur -65.1469 -4.52604 29.1536
rtibia 65.7752
rfoot -15.0962 8.95993
rtoes 4.51604
lfemur -11.1599 -2.89649 -33.4511
ltibia 36.1157
lfoot -13.2038 -7.69992
ltoes 3.74525
